<?xml version="1.0" standalone="no"?>
<!DOCTYPE svg PUBLIC "-//W3C//DTD SVG 20010904//EN"
 "http://www.w3.org/TR/2001/REC-SVG-20010904/DTD/svg10.dtd">
<svg version="1.0" xmlns="http://www.w3.org/2000/svg"
 width="51.000000pt" height="51.000000pt" viewBox="0 0 51.000000 51.000000"
 preserveAspectRatio="xMidYMid meet">
<metadata>
Created by potrace 1.16, written by Peter Selinger 2001-2019
</metadata>
<g transform="translate(0.000000,51.000000) scale(0.100000,-0.100000)"
fill="#000000" stroke="none">
<path d="M285 260 c-11 -4 -59 -5 -106 -2 -52 3 -89 1 -92 -5 -10 -17 13 -82
33 -93 22 -12 70 -13 86 -2 5 4 16 22 23 40 17 42 37 41 56 -4 14 -34 16 -35
61 -32 48 3 50 4 77 65 14 30 13 32 -7 37 -30 8 -107 6 -131 -4z"/>
</g>
</svg>
